<svg height="512" viewBox="0 0 64 64" width="512" xmlns="http://www.w3.org/2000/svg"><path d="m61 7v32h-58v-32a4.012 4.012 0 0 1 4-4h50a4 4 0 0 1 4 4z" fill="#5aaae7"/><path d="m31 34v5h-2v-5a6 6 0 0 0 -6-6v-2.56a3.968 3.968 0 0 0 2-3.44v-2h1v-2a5.01 5.01 0 0 0 -3.99-4.9 4.619 4.619 0 0 1 .99-.1 5 5 0 0 1 5 5v2h-1v2a3.968 3.968 0 0 1 -2 3.44v2.56a6 6 0 0 1 6 6z" fill="#3d9ae2"/><path d="m40 57h-16l.8-8 .2-2h14l.2 2z" fill="#898890"/><path d="m43 57a2.006 2.006 0 0 1 2 2 2.015 2.015 0 0 1 -2 2h-22a2.006 2.006 0 0 1 -2-2 2.015 2.015 0 0 1 2-2z" fill="#787680"/><path d="m61 39v4a4.012 4.012 0 0 1 -4 4h-50a4.012 4.012 0 0 1 -4-4v-4z" fill="#acabb1"/><path d="m23 25.46v2.54l-2 2-2-2v-2.54l2 .54a3.989 3.989 0 0 0 2-.54z" fill="#ffb655"/><path d="m13 34a6 6 0 0 1 6-6l2 2v9h-8z" fill="#ff5023"/><path d="m23 28a6 6 0 0 1 6 6v5h-8v-9z" fill="#ff6243"/><path d="m53 18a9 9 0 0 1 -9 9 8.472 8.472 0 0 1 -1.02-.06 8.994 8.994 0 0 0 .02-17.88 8.262 8.262 0 0 1 1-.06 9 9 0 0 1 9 9z" fill="#3d9ae2"/><path d="m39.2 49h-14.4l.2-2h14z" fill="#787680"/><path d="m23 25.46v1a3.974 3.974 0 0 1 -4 0v-1l2 .54a3.989 3.989 0 0 0 2-.54z" fill="#ffa733"/><path d="m42 9a9 9 0 1 1 -6.69 15h-4.31l2.22-4.03a8.993 8.993 0 0 1 8.78-10.97z" fill="#ffd422"/><path d="m26 18v2h-1.17a2.006 2.006 0 0 1 -1.42-.59l-1.41-1.41-.83.83a4 4 0 0 1 -2.83 1.17h-2.34v-2a5 5 0 0 1 10 0z" fill="#787680"/><path d="m24.83 20a2.006 2.006 0 0 1 -1.42-.59l-1.41-1.41-.83.83a4 4 0 0 1 -2.825 1.17h-1.345v2a4 4 0 0 0 4 4 4 4 0 0 0 4-4v-2z" fill="#ffc477"/><path d="m54 42h2v2h-2z" fill="#898890"/><path d="m25 33h2v6h-2z" fill="#ed1c24"/><path d="m15 33h2v6h-2z" fill="#ed1c24"/><path d="m43 17h-2a1 1 0 0 1 0-2h2a1 1 0 0 1 1 1h2a3 3 0 0 0 -3-3v-1h-2v1a3 3 0 0 0 0 6h2a1 1 0 0 1 0 2h-2a1 1 0 0 1 -1-1h-2a3 3 0 0 0 3 3v1h2v-1a3 3 0 0 0 0-6z" fill="#ff5023"/></svg>