<svg xmlns="http://www.w3.org/2000/svg" xmlns:xlink="http://www.w3.org/1999/xlink" width="53.002" height="53" viewBox="0 0 53.002 53"><defs><style>.a{fill:none;}.b{fill:#694a86;}.c{fill:#ed1163;}.d{fill:#40b1e5;}.e{fill:url(#a);}.f{fill:url(#b);}</style><linearGradient id="a" x1="0.088" y1="0.499" x2="0.792" y2="0.499" gradientUnits="objectBoundingBox"><stop offset="0" stop-color="#ed1163"/><stop offset="1" stop-color="#694a86"/></linearGradient><linearGradient id="b" x1="0.737" y1="0.202" x2="0.364" y2="0.609" gradientUnits="objectBoundingBox"><stop offset="0" stop-color="#ed1163"/><stop offset="1" stop-color="#40b1e5"/></linearGradient></defs><g transform="translate(0)"><path class="a" d="M178.107,194.414h-.058a1.086,1.086,0,0,0-.729.348l-.087.174-5.629,9.7a1.273,1.273,0,0,1-.088.145,1.1,1.1,0,0,0,.058.884l5.629,9.7a1.067,1.067,0,0,0,.9.522H189.38a1.049,1.049,0,0,0,.9-.522l5.629-9.7a1.028,1.028,0,0,0,0-1.043l-5.629-9.7a1.07,1.07,0,0,0-.846-.522H178.107Z" transform="translate(-146.437 -166.226)"/><path class="a" d="M47.681,119.162a1.27,1.27,0,0,1-.088-.145h0l-5.629-9.7a1.58,1.58,0,0,1-.088-.159,1.014,1.014,0,0,0-.788-.362H29.8a1.049,1.049,0,0,0-.9.522l-5.629,9.7a1.028,1.028,0,0,0,0,1.043l5.629,9.7a1.067,1.067,0,0,0,.9.522H41.074a1.036,1.036,0,0,0,.788-.362l.088-.174,5.629-9.7a1.272,1.272,0,0,1,.088-.145A1,1,0,0,0,47.681,119.162Z" transform="translate(-19.745 -93.032)"/><path class="a" d="M177.985,44.578h11.39a1.036,1.036,0,0,0,.846-.522l5.629-9.7a1.028,1.028,0,0,0,0-1.043l-5.629-9.7a1.067,1.067,0,0,0-.9-.522H178.044a1.049,1.049,0,0,0-.9.522l-5.629,9.7a1.026,1.026,0,0,0-.058.9,1.283,1.283,0,0,1,.087.145l5.629,9.7a1.587,1.587,0,0,1,.087.159A.99.99,0,0,0,177.985,44.578Z" transform="translate(-146.374 -19.752)"/><path class="b" d="M216.758,194.4H216.7a.045.045,0,0,0,.058,0h0Z" transform="translate(-185.089 -166.226)"/><path class="c" d="M211.7,168.8a3.458,3.458,0,0,1,.19.406,3.388,3.388,0,0,1,.54-.043A.99.99,0,0,1,211.7,168.8Z" transform="translate(-180.818 -144.336)"/><path class="b" d="M153.45,14.478a1.026,1.026,0,0,1,.058-.9l5.629-9.7a1.067,1.067,0,0,1,.9-.522h11.273a1.049,1.049,0,0,1,.9.522l5.629,9.7a1.028,1.028,0,0,1,0,1.043l-5.629,9.7a1.07,1.07,0,0,1-.846.522,4.438,4.438,0,0,1,3.413,1.681,3.267,3.267,0,0,0,.35-.522l5.629-9.7a4.376,4.376,0,0,0,0-4.391l-5.629-9.7A4.4,4.4,0,0,0,171.316,0H160.042a4.439,4.439,0,0,0-3.836,2.2l-5.629,9.7c-.1.188-.19.377-.277.565A4.43,4.43,0,0,1,153.45,14.478Z" transform="translate(-128.373)"/><path class="c" d="M212.429,194.243a3.257,3.257,0,0,1-.54-.043c-.058.13-.117.261-.19.391A1.086,1.086,0,0,1,212.429,194.243Z" transform="translate(-180.818 -166.055)"/><path class="d" d="M180.951,193.117l-5.629-9.7a4.082,4.082,0,0,0-.35-.522,4.484,4.484,0,0,1-3.413,1.681,1.036,1.036,0,0,1,.846.522l5.629,9.7a1.028,1.028,0,0,1,0,1.043l-5.644,9.681a1.067,1.067,0,0,1-.9.522H160.213a1.049,1.049,0,0,1-.9-.522l-5.629-9.7a1,1,0,0,1-.058-.884,4.414,4.414,0,0,1-3.121,2,2.787,2.787,0,0,0,.277.551l5.629,9.7a4.471,4.471,0,0,0,3.836,2.2h11.273a4.439,4.439,0,0,0,3.836-2.2l5.629-9.7A4.421,4.421,0,0,0,180.951,193.117Z" transform="translate(-128.544 -156.393)"/><path class="e" d="M224.93,171.3H213.54a3.25,3.25,0,0,0-.54.044,4.386,4.386,0,0,1,0,3.275,3.386,3.386,0,0,0,.54.043h11.39a4.438,4.438,0,0,0,3.413-1.681A4.438,4.438,0,0,0,224.93,171.3Z" transform="translate(-181.929 -146.474)"/><path class="c" d="M171.988,99.945a1.269,1.269,0,0,1-.088-.145.6.6,0,0,0,.058.145l5.629,9.7a1.106,1.106,0,0,0,.117.159c-.029-.058-.058-.1-.088-.159Z" transform="translate(-146.823 -85.336)"/><path class="c" d="M191.5,181.039a3.289,3.289,0,0,1,.263-.362,2.187,2.187,0,0,1-.263-.377A1.073,1.073,0,0,1,191.5,181.039Z" transform="translate(-163.564 -154.17)"/><path class="c" d="M22.067,110.078a1.063,1.063,0,0,1-.788.362H10.006a1.049,1.049,0,0,1-.9-.522l-5.629-9.7a1.028,1.028,0,0,1,0-1.043l5.629-9.7a1.067,1.067,0,0,1,.9-.522H21.279a1.063,1.063,0,0,1,.788.362,4.4,4.4,0,0,1-.19-3.681,4.15,4.15,0,0,0-.6-.043H10.006A4.439,4.439,0,0,0,6.17,87.8L.541,97.5a4.376,4.376,0,0,0,0,4.391l5.644,9.71a4.47,4.47,0,0,0,3.836,2.2H21.294a4.355,4.355,0,0,0,.613-.043A4.34,4.34,0,0,1,22.067,110.078Z" transform="translate(0.05 -73.194)"/><path class="c" d="M148.712,89.581a1.521,1.521,0,0,1,.117.159l5.629,9.7a.433.433,0,0,1,.058.145c.087.13.175.261.262.377a4.467,4.467,0,0,1,2.873-1.638c-.058-.13-.117-.275-.19-.406a1.521,1.521,0,0,1-.117-.159l-5.629-9.7a.432.432,0,0,1-.058-.145,4.431,4.431,0,0,0-3.136-2.014A4.34,4.34,0,0,0,148.712,89.581Z" transform="translate(-126.58 -73.451)"/><path class="f" d="M151.635,194.943a.7.7,0,0,1,.058-.159l5.629-9.7a.643.643,0,0,1,.117-.159c.073-.13.131-.261.19-.391a4.44,4.44,0,0,1-2.873-1.638c-.088.116-.175.246-.263.362a.7.7,0,0,1-.058.159l-5.629,9.7a.642.642,0,0,1-.117.159,4.364,4.364,0,0,0-.175,3.667A4.414,4.414,0,0,0,151.635,194.943Z" transform="translate(-126.573 -156.393)"/><path class="c" d="M196.173,171.6a4.441,4.441,0,0,0-2.873,1.638,4.406,4.406,0,0,0,2.873,1.638A4.386,4.386,0,0,0,196.173,171.6Z" transform="translate(-165.102 -146.73)"/></g></svg>