<svg xmlns="http://www.w3.org/2000/svg" width="56.025" height="71.349" viewBox="0 0 56.025 71.349">
<defs>
<style>
.a,.b{fill:white;}
.b{ stroke:rgba(0,0,0,0);}
</style>
</defs>
<g transform="translate(-550.747 -1192.401)" >
<g transform="translate(551.341 1192.401)">
<path class="a" d="M635.161,364.483a5.531,5.531,0,0,0-1.747,3.583c-1.6,8.495-4.285,34.014-4.285,34.014l37.535-26.8a6.243,6.243,0,0,0,.579-9.529L654.9,353.989a4.572,4.572,0,0,0-5.936-.29Z" transform="translate(-629.129 -352.743)"/>
<path class="b" d="M5443.581,14138.114h-19.359a6.705,6.705,0,0,1-5.2-2.51,14.361,14.361,0,0,1-2.736-5.428l-4.283-12.23,32.931-23.352,19.824,17.024a6.245,6.245,0,0,1,.216,9.275l-15.942,15.052A7.891,7.891,0,0,1,5443.581,14138.114Zm.4-39.013L5417,14118.236l3.509,10.021c.547,1.955,2.275,6.5,6.5,6.5h15.864a6.491,6.491,0,0,0,4.467-1.774l13.061-12.333a5.114,5.114,0,0,0-.178-7.6l-16.244-13.951Z" transform="translate(-5412 -14067.266)"/>
</g>
</g>
</svg>