<svg height="512pt" viewBox="0 0 512 512" width="512pt" xmlns="http://www.w3.org/2000/svg"><path d="m488 256c0 128.128906-103.871094 232-232 232s-232-103.871094-232-232 103.871094-232 232-232 232 103.871094 232 232zm0 0" fill="#91e8ed"/><path d="m448 256c0 106.039062-85.960938 192-192 192s-192-85.960938-192-192 85.960938-192 192-192 192 85.960938 192 192zm0 0" fill="#00c3ff"/><path d="m303.769531 344.585938h-95.539062c-.140625-.347657-.230469-.585938-.230469-.585938l-103.046875 30.3125c36.320313 46.503906 92.039063 73.6875 151.046875 73.6875s114.726562-27.183594 151.046875-73.6875l-103.046875-30.3125s-.089844.238281-.230469.585938zm0 0" fill="#ffea00"/><path d="m208 348s.089844.238281.230469.585938c2.425781 24.5625 23.085937 43.285156 47.769531 43.285156s45.34375-18.722656 47.769531-43.285156c.140625-.347657.230469-.585938.230469-.585938v-52h-96zm0 0" fill="#ffdecf"/><path d="m328 160v56c8.835938 0 16 7.164062 16 16 .003906 10.347656-3.574219 20.375-10.128906 28.382812l-5.871094 7.203126v20.414062l-48 32h-48l-48-32v-20.441406l-5.871094-7.199219c-6.546875-8-10.125-18.019531-10.128906-28.359375 0-8.835938 7.164062-16 16-16v-56zm0 0" fill="#ffdecf"/><path d="m328 192c-17.652344-.050781-31.949219-14.347656-32-32 0 48-112 16-144 32 0-112 144-80 152-56 13.253906 0 24 10.746094 24 24zm0 0" fill="#50575e"/><path d="m16 16h96v-16h-112v112h16zm0 0"/><path d="m96 48v-16h-64v64h16v-48zm0 0"/><path d="m16 400h-16v112h112v-16h-96zm0 0"/><path d="m32 416v64h64v-16h-48v-48zm0 0"/><path d="m400 0v16h96v96h16v-112zm0 0"/><path d="m480 96v-64h-64v16h48v48zm0 0"/><path d="m496 496h-96v16h112v-112h-16zm0 0"/><path d="m416 464v16h64v-64h-16v48zm0 0"/><path d="m493.679688 289.089844-15.847657-2.179688c-14.789062 104.878906-100.910156 185.125-206.566406 192.480469-4.511719.417969-9.371094.609375-15.265625.609375s-10.753906-.191406-15.265625-.609375l-1.46875 15.9375c5.015625.464844 10.335937.671875 16.734375.671875s11.71875-.207031 16.535156-.65625c113.148438-7.957031 205.332032-93.933594 221.144532-206.253906zm0 0"/><path d="m18.3125 222.910156 15.855469 2.179688c14.792969-104.875 100.910156-185.121094 206.566406-192.480469 4.511719-.417969 9.371094-.609375 15.265625-.609375s10.753906.191406 15.265625.609375l1.46875-15.9375c-5.015625-.464844-10.335937-.671875-16.734375-.671875s-11.71875.207031-16.535156.65625c-113.152344 7.957031-205.339844 93.933594-221.152344 206.253906zm0 0"/><path d="m456 256c0-110.457031-89.542969-200-200-200s-200 89.542969-200 200 89.542969 200 200 200c110.40625-.125 199.875-89.59375 200-200zm-348.046875 109.105469c-56.128906-76.058594-45.5-182.269531 24.585937-245.695313 70.089844-63.421875 176.832032-63.421875 246.921876 0 70.085937 63.425782 80.714843 169.636719 24.585937 245.695313l-92.046875-27.089844v-29.734375l24-16v-21.882812l4.054688-4.957032c7.710937-9.441406 11.929687-21.253906 11.945312-33.441406-.011719-10.167969-6.417969-19.230469-16-22.632812v-49.367188c-.023438-15.8125-11.570312-29.246094-27.199219-31.640625-12.738281-16.726563-57.976562-28-94.226562-22.160156-26.351563 4.289062-70.574219 21.121093-70.574219 85.800781v12.945312l11.574219-5.785156c6.511719-2.535156 13.4375-3.835937 20.425781-3.839844v14.046876c-9.582031 3.402343-15.988281 12.464843-16 22.632812.007812 12.191406 4.226562 24.003906 11.9375 33.449219l4.0625 4.949219v21.867187l24 16v29.734375zm169.648437-53.105469h-43.203124l-42.398438-28.28125v-19.007812l-7.679688-9.398438c-5.375-6.582031-8.316406-14.816406-8.320312-23.3125 0-4.417969 3.582031-8 8-8h8v-28.960938c6.183594.066407 12.601562.25 18.984375.449219 33.238281 1.015625 67.542969 2.078125 83.800781-13.230469 5.863282 8.710938 14.921875 14.769532 25.214844 16.863282v24.878906h8c4.417969 0 8 3.582031 8 8-.003906 8.5-2.945312 16.738281-8.328125 23.320312l-7.671875 9.390626v19.007812zm18.398438 6.945312v25.054688c0 22.089844-17.910156 40-40 40s-40-17.910156-40-40v-25.054688l13.601562 9.054688h52.796876zm-135.464844-137.953124c4.160156-40.71875 31.542969-54.472657 54.816406-58.6875 38.617188-6.953126 78.402344 9.144531 81.0625 16.222656l1.816407 5.472656h5.769531c8.835938 0 16 7.164062 16 16v22.632812c-9.582031-3.402343-15.988281-12.464843-16-22.632812h-16c.230469 3.898438-1.226562 7.707031-4 10.457031-11.257812 10.925781-43.761719 9.933594-72.496094 9.039063-16.996094-1.21875-34.070312-.714844-50.96875 1.496094zm-41.597656 197.601562 82.070312-24.195312c4.484376 23.46875 23.347657 41.519531 46.992188 44.960937v24.640625h16v-24.640625c23.644531-3.4375 42.511719-21.488281 46.992188-44.960937l82.105468 24.152343c-34.851562 39.09375-84.730468 61.449219-137.097656 61.449219s-102.246094-22.355469-137.097656-61.449219zm0 0"/><path d="m248 216h-16v56h32v-16h-16zm0 0"/></svg>