<svg xmlns="http://www.w3.org/2000/svg" width="75.348" height="74.101" viewBox="0 0 75.348 74.101">
<defs>
    <style>.a{fill:#247db4;}</style>
</defs>
    <g transform="translate(-65.122 -187.899)">
        <path class="a" d="M120.278,244.221a30.376,30.376,0,0,1-5.588-1.344c-1.035-.339-4.525-2.3-4.592-3.19s-.22-3.962-.22-3.962-4.388,3.213-7.646,3.213c-3.222,0-7.646-3.213-7.646-3.213s-.152,3.062-.22,3.962-3.557,2.851-4.592,3.19a30.376,30.376,0,0,1-5.588,1.344c-4.921.506-8.957,2.277-8.957,7.224h54.006C129.235,246.5,125.2,244.727,120.278,244.221Z"/>
        <path class="a" d="M136.085,216.129a3.444,3.444,0,0,0-3.353,2.663H73.258a3.445,3.445,0,1,0,0,1.566h59.474a3.444,3.444,0,1,0,3.353-4.229Z"/>
        <rect class="a" width="15.662" height="1.253" transform="translate(65.122 187.899)"/>
        <rect class="a" width="15.662" height="1.253" transform="translate(65.122 203.561) rotate(-90)"/>
        <rect class="a" width="15.662" height="1.253" transform="translate(140.47 189.152) rotate(-180)"/>
        <rect class="a" width="15.662" height="1.253" transform="translate(139.217 203.561) rotate(-90)"/>
        <rect class="a" width="15.662" height="1.253" transform="translate(140.47 262) rotate(180)"/>
        <rect class="a" width="15.662" height="1.253" transform="translate(140.47 246.338) rotate(90)"/>
        <rect class="a" width="15.662" height="1.253" transform="translate(65.122 260.747)"/>
        <rect class="a" width="15.662" height="1.253" transform="translate(66.375 246.338) rotate(90)"/>
        <path class="a" d="M88.991,217.535H115.57c-.145-.753-.532-1.181-1.342-1.071,0,0,1.621-7.442-.29-10.974s-5.27-6.838-11.828-6.838c-4.2,0-12.5,1.5-12.553,11.152a27.192,27.192,0,0,0,.695,6.6S89.367,216.016,88.991,217.535Z"/>
        <path class="a" d="M88.992,221.6c.668,5.282,2.476,3.665,2.476,3.665s.435,4.256,1.68,5.994,5.472,5.907,8.962,5.907,7.4-3.1,8.874-5.589a17.844,17.844,0,0,0,1.825-6.283s1.911.26,2.374-2.9c.04-.269.079-.533.119-.8Z"/>
    </g>
</svg>